<svg xmlns="http://www.w3.org/2000/svg" id="Layer_1" data-name="Layer 1" viewBox="0 0 153.33 55.74">
  <defs>
    <style>
      .cls-1{fill:none;}
    </style>
  </defs>
  <path fill="#3abb57" d="M24.81 4.78A20.18 20.18 0 0 1 43.26 17a.48.48 0 0 1-.44.68h-36a.48.48 0 0 1-.47-.68A20.19 20.19 0 0 1 24.81 4.78m23.81 17.66a.82.82 0 0 0 .8-.92 23.82 23.82 0 0 0-.55-2.82v-.08a22.71 22.71 0 0 0-.72-2.3.24.24 0 0 0 0-.08l-.39-1c0-.1-.09-.19-.13-.29s-.21-.48-.33-.72-.13-.28-.2-.42-.18-.36-.28-.54-.19-.36-.29-.54l-.2-.35c-.13-.22-.26-.45-.4-.67v-.07A25.08 25.08 0 0 0 29.09.38l-.94-.15h-.32L27.1.11h-.59L26 0h-3.48l-.74.08h-.32l-.91.14A25.08 25.08 0 0 0 3.77 11.66v.07l-.41.67c-.06.12-.13.24-.2.36s-.19.35-.29.53l-.28.54c-.06.14-.13.28-.2.42L2 15l-.12.29c-.14.33-.27.66-.4 1a.14.14 0 0 1 0 .06 23.72 23.72 0 0 0-.72 2.31.14.14 0 0 1 0 .07 26.66 26.66 0 0 0-.56 2.79.81.81 0 0 0 .79.92zM44.09 33.35a20.1 20.1 0 0 1-8 14.71.41.41 0 0 1-.66-.33v-5a.53.53 0 0 0-.82-.45 15.09 15.09 0 0 1-2.44 1.24 20.42 20.42 0 0 1-8.61 1.34A20.06 20.06 0 0 1 4.78 25.92a.66.66 0 0 0-.66-.63H.66A.66.66 0 0 0 0 26a24.82 24.82 0 0 0 25.06 23.66 24.06 24.06 0 0 0 5-.56.44.44 0 0 1 .54.44v5.61a.59.59 0 0 0 .77.56c1.23-.39 2.57-1 2.57-1a24.91 24.91 0 0 0 14.94-21.3.66.66 0 0 0-.66-.69h-3.47a.67.67 0 0 0-.66.63M97.76 24.93a.39.39 0 0 0 .39-.39v-1.36c-.4-9.33-5.74-15-13.71-15-8.38 0-14.69 6.54-14.69 15.05s6.31 15 14.8 15a15.31 15.31 0 0 0 11.56-4.91.26.26 0 0 0 0-.33l-3.92-4.25a.23.23 0 0 0-.35 0 9.87 9.87 0 0 1-7.29 3.13 8 8 0 0 1-8.23-6.8.12.12 0 0 1 .12-.14zM76.88 20a.3.3 0 0 1-.28-.4C77.08 18.23 79 14 84 14c3.67 0 6.31 1.87 7.15 5.59a.3.3 0 0 1-.3.36zM129.26 37.52V8.84a.25.25 0 0 0-.26-.24h-5.82a.24.24 0 0 0-.24.24v1.43a.24.24 0 0 1-.39.19 12.12 12.12 0 0 0-7.3-2.33c-8.49 0-14.74 6.54-14.74 15.05s6.25 15 14.74 15a12.08 12.08 0 0 0 7.3-2.27.24.24 0 0 1 .39.19v1.37a.24.24 0 0 0 .24.24H129a.25.25 0 0 0 .25-.24M123 28.06a.24.24 0 0 1 0 .14 9.12 9.12 0 0 1-7.58 3.9c-4.88 0-8.32-3.85-8.32-8.92s3.44-8.92 8.32-8.92a9.15 9.15 0 0 1 7.58 3.9.24.24 0 0 1 0 .14zM138.37 8.36V3.15a.23.23 0 0 1 .13-.21L144.33 0a.24.24 0 0 1 .35.21v8.15a.24.24 0 0 0 .24.24h8.17a.25.25 0 0 1 .24.3l-1.26 5.23a.26.26 0 0 1-.24.19h-6.91a.24.24 0 0 0-.24.24v13c0 3 .8 4.31 4.07 4.31h3.72a.24.24 0 0 1 .24.24v5.41a.24.24 0 0 1-.24.24h-5.32c-5.51 0-8.78-3.32-8.78-8.86V14.56a.24.24 0 0 0-.24-.24h-3.76a.24.24 0 0 1-.23-.19l-1.26-5.23a.24.24 0 0 1 .23-.3h5a.24.24 0 0 0 .24-.24M151.87 53.49a2.92 2.92 0 0 1-2.66 1.51 3 3 0 0 1 0-6 3 3 0 0 1 2.66 1.45zm0 1.13v1h.83V45.18h-.83v4.1a3.46 3.46 0 0 0-2.66-1.13 3.8 3.8 0 0 0 0 7.59 3.48 3.48 0 0 0 2.66-1.12m-14.19-6.35v7.35h.83v-4.88a2.23 2.23 0 0 1 2.27-1.81 1.94 1.94 0 0 1 2 2.16v4.53h.82V51a2.59 2.59 0 0 0-2.6-2.85 2.8 2.8 0 0 0-2.48 1.17v-1zm-3.24 5.22a2.93 2.93 0 0 1-2.66 1.51 3 3 0 0 1 0-6 3 3 0 0 1 2.66 1.45zm0 1.13v1h.82v-7.35h-.82v1a3.49 3.49 0 0 0-2.66-1.13 3.8 3.8 0 0 0 0 7.59 3.51 3.51 0 0 0 2.66-1.12m-9.19 1h.82V45.18h-.82zm-3.37-2.13a2.93 2.93 0 0 1-2.66 1.52 3 3 0 0 1 0-6 3 3 0 0 1 2.66 1.45zm0 1.13v1h.83v-7.34h-.83v1a3.46 3.46 0 0 0-2.66-1.13 3.8 3.8 0 0 0 0 7.59 3.48 3.48 0 0 0 2.66-1.12m-13.83-3.41a2.68 2.68 0 0 1 2.59-2.28 2.42 2.42 0 0 1 2.55 2.28zm-.91.73a3.67 3.67 0 0 0 3.67 3.8 3.93 3.93 0 0 0 2.78-1.09l-.52-.59a3.13 3.13 0 0 1-2.26.9A2.87 2.87 0 0 1 108 52h6.11c-.06-2.59-1.54-3.81-3.43-3.81a3.66 3.66 0 0 0-3.53 3.79m-2.43-2.87l-4.63 6.55h6v-.81h-4.55l4.64-6.54h-5.68v.8zm-18.25-.8l2.32 7.35h.62l1.85-5.28 1.88 5.28h.59L96 48.27h-.85l-1.82 5.88-2.1-6-2.11 6-1.82-5.88zm-7 2.94a2.67 2.67 0 0 1 2.59-2.28 2.42 2.42 0 0 1 2.55 2.28zm-.91.73a3.67 3.67 0 0 0 3.67 3.8A3.93 3.93 0 0 0 85 54.65l-.52-.59a3.14 3.14 0 0 1-2.26.9 2.87 2.87 0 0 1-2.82-3h6.1c0-2.59-1.53-3.81-3.42-3.81a3.66 3.66 0 0 0-3.53 3.79m-7.86-3.67v7.35h.83v-4.88a2.23 2.23 0 0 1 2.27-1.81 1.94 1.94 0 0 1 2 2.16v4.53h.82V51A2.59 2.59 0 0 0 74 48.15a2.8 2.8 0 0 0-2.48 1.17v-1z"></path>
  <path d="M0 0h153.33v55.74H0z" class="cls-1"></path>
</svg>
