<?xml version="1.0" encoding="utf-8"?>
<svg viewBox="0 0 229.387 82.03" xmlns="http://www.w3.org/2000/svg">
  <g id="raLogo" transform="matrix(1, 0, 0, 1, 0.16, 0.18)">
    <path d="M34.27 69.6c-12.24 0-22.2-9.94-22.2-22.18H-.15c0 19 15.44 34.43 34.43 34.43 18.98 0 34.43-15.44 34.43-34.43H56.48c0 12.24-9.95 22.2-22.2 22.2zm-22.2-48.08c0-4.97 4.2-9.15 9.4-9.15 1 0 1.96.17 2.86.46l.15-.14V-.18h-1.16c-4.2 0-8.18 2.03-11.1 5.85h-.14V.58H-.16v38.45h12.24v-17.5zm44.36-16.9h-.16c-2.7-3.16-6.42-4.77-10.55-4.77-9.9 0-18.07 8.22-18.07 19.92v.1c0 11.7 8.17 19.9 18.07 19.9 4.13 0 7.84-1.6 10.55-4.77h.16v4.05H68.7V.6H56.43v4.05zm-7.54 23.5c-4.75 0-8.54-3.72-8.54-8.35 0-4.5 3.8-8.3 8.5-8.3 4.6 0 8.43 3.8 8.43 8.3 0 4.63-3.83 8.37-8.4 8.37z" style="fill: rgb(238, 64, 85);"/>
    <circle cx="81.37" cy="33.63" r="6.14" style="fill: rgb(238, 64, 85);"/>
  </g>
  <g id="raLogoText" transform="matrix(1, 0, 0, 1, 99.734372, -0.715)">
    <path d="M3.934 11.509c0-1.803 1.089-3.159 3.085-3.159.183 0 .534.013.86.037V4.829c-.073-.012-.158-.012-.254-.012h-.001c-1.429 0-2.735.702-3.654 1.984h-.036V5.023H.689v12.101h3.244l.001-5.615zm11.264 5.821c2.433 0 4.198-.98 5.229-2.287l-2.106-1.96c-.665.81-1.621 1.379-2.892 1.367-1.549-.013-2.699-.884-3.086-2.324h8.483c.062-.218.085-.774.085-1.161 0-3.546-2.384-6.148-5.941-6.148-3.437 0-6.002 2.566-6.002 6.245-.002 3.775 2.684 6.268 6.23 6.268zm-.121-9.657c1.402 0 2.286.835 2.613 2.118h-5.337c.376-1.404 1.405-2.118 2.724-2.118zm12.305 7.055c-1.319 0-2.36-.484-3.354-1.415l-1.572 2.238c1.318 1.162 2.966 1.779 4.9 1.779h.001c3.171 0 4.695-1.622 4.695-3.764 0-2.383-1.536-2.952-4.162-3.92-1.188-.448-1.815-.799-1.815-1.307 0-.629.653-.907 1.187-.907.896 0 1.961.399 2.892 1.282l1.574-2.372c-1.381-1.064-2.747-1.525-4.43-1.525-2.469 0-4.356 1.44-4.356 3.631 0 2.336 1.73 3.279 3.728 3.933 1.572.508 2.202.786 2.202 1.343-.001.592-.546 1.004-1.49 1.004zm7.417-1.427c0 2.722 1.379 4.029 3.461 4.029h.001c1.635 0 2.433-.339 3.206-.762l-.834-2.59c-.545.278-1.15.424-1.525.424-.763 0-1.064-.509-1.064-1.55V7.709h3.292V5.022h-3.292V.716l-3.244.35v3.957h-1.428V7.71H34.8l-.001 5.591zM48.28 17.33c1.562 0 2.783-.593 3.618-1.671h.062v1.465h3.085V5.022h-3.242V6.39h-.049c-.896-1.041-2.143-1.573-3.569-1.573-3.243 0-5.7 2.613-5.7 6.292-.002 3.74 2.443 6.221 5.795 6.221zm.605-9.597c1.755 0 3.049 1.452 3.049 3.389 0 1.984-1.379 3.303-3.062 3.303-1.815 0-3.099-1.343-3.099-3.303.002-2.07 1.369-3.389 3.112-3.389zm13.528 9.597c1.367 0 2.65-.569 3.594-1.682h.05v1.477h3.242V5.023h-3.242v5.869c0 2.348-1.271 3.521-2.688 3.521-1.514 0-2.166-.726-2.166-2.952V5.023H57.96v7.285c-.001 3.691 1.839 5.022 4.453 5.022zm13.261-5.821c0-1.803 1.089-3.159 3.086-3.159.182 0 .532.012.859.037V4.829c-.072-.012-.157-.012-.254-.012-1.43 0-2.735.702-3.654 1.984h-.037V5.022h-3.243v12.102h3.243v-5.615zm10.843 5.821c1.562 0 2.782-.593 3.617-1.671h.062v1.465h3.085V5.022h-3.242V6.39h-.049c-.896-1.041-2.144-1.573-3.57-1.573-3.243 0-5.7 2.613-5.7 6.292-.001 3.74 2.445 6.221 5.797 6.221zm.605-9.597c1.755 0 3.049 1.452 3.049 3.389 0 1.984-1.379 3.303-3.062 3.303-1.815 0-3.099-1.343-3.099-3.303.001-2.07 1.368-3.389 3.112-3.389zm17.604 3.025v6.378h3.243V9.948c0-3.727-1.803-5.131-4.393-5.131-1.488 0-2.894.606-3.885 1.767h-.036V5.023h-3.242v12.101h3.242v-6.087c0-2.154 1.102-3.304 2.747-3.304 1.502 0 2.324.714 2.324 3.025zm-1.149-5.941h.001m12.063 9.584c-.763 0-1.063-.508-1.063-1.549V7.709h3.292V5.023h-3.292V.715l-3.243.351v3.957h-1.429v2.686h1.429V13.3c0 2.723 1.379 4.029 3.461 4.029 1.634 0 2.432-.338 3.207-.761l-.835-2.591c-.546.279-1.152.424-1.527.424zM9.318 28.283H9.27c-.896-1.041-2.142-1.574-3.569-1.574-3.243 0-5.7 2.614-5.7 6.293 0 3.739 2.444 6.22 5.797 6.22 1.561 0 2.782-.593 3.618-1.67h.061v1.465h3.085V26.915H9.318v1.368zM6.39 36.317c-1.815 0-3.098-1.342-3.098-3.303 0-2.07 1.367-3.39 3.109-3.39 1.756 0 3.05 1.453 3.05 3.39 0 1.984-1.38 3.303-3.061 3.303zm13.236.304c-1.318 0-2.359-.485-3.353-1.417L14.7 37.442c1.319 1.162 2.965 1.779 4.901 1.779h.001c3.171 0 4.694-1.621 4.694-3.764 0-2.383-1.535-2.952-4.161-3.92-1.188-.448-1.816-.799-1.816-1.307 0-.629.654-.907 1.187-.907.896 0 1.961.399 2.893 1.282l1.574-2.373c-1.382-1.064-2.747-1.524-4.431-1.524-2.469 0-4.356 1.44-4.356 3.631 0 2.335 1.729 3.279 3.728 3.933 1.572.509 2.203.787 2.203 1.343-.001.593-.546 1.006-1.491 1.006zm11.047 0c-1.318 0-2.359-.485-3.353-1.417l-1.572 2.238c1.318 1.162 2.965 1.779 4.9 1.779h.001c3.17 0 4.695-1.621 4.695-3.764 0-2.383-1.536-2.952-4.163-3.92-1.187-.448-1.814-.799-1.814-1.307 0-.629.652-.907 1.187-.907.896 0 1.96.399 2.892 1.282l1.574-2.373c-1.381-1.064-2.747-1.524-4.431-1.524-2.468 0-4.356 1.44-4.356 3.631 0 2.335 1.73 3.279 3.728 3.933 1.573.509 2.202.787 2.202 1.343-.001.593-.545 1.006-1.49 1.006zm19.217-3.643c0-3.715-2.674-6.268-6.438-6.268-3.849 0-6.438 2.65-6.438 6.268 0 3.606 2.59 6.244 6.438 6.244 3.764 0 6.438-2.541 6.438-6.244zm-9.596 0c0-1.912 1.271-3.352 3.158-3.352 1.791 0 3.146 1.367 3.146 3.352 0 1.961-1.393 3.34-3.146 3.34-1.85-.001-3.158-1.464-3.158-3.34zm18.03 3.328c-1.925 0-3.243-1.367-3.243-3.353 0-1.96 1.281-3.327 3.22-3.327 1.222 0 2.166.533 2.818 1.294l2.189-1.887c-1.222-1.537-3.219-2.323-5.144-2.323-3.751 0-6.377 2.553-6.377 6.268s2.639 6.244 6.221 6.244c2.433 0 4.308-.968 5.349-2.178l-2.227-1.961c-.568.643-1.524 1.223-2.806 1.223zm9.015-15.056c-1.114 0-2.011.896-2.011 1.973 0 1.101.896 1.985 2.011 1.985 1.101 0 2.008-.884 2.008-1.985 0-1.077-.907-1.973-2.008-1.973zm-1.622 5.665h3.243v12.102h-3.243zm15.258 1.368h-.049c-.896-1.041-2.142-1.574-3.569-1.574-3.243 0-5.699 2.614-5.699 6.293 0 3.739 2.444 6.22 5.797 6.22 1.561 0 2.782-.593 3.617-1.67h.062v1.465h3.085V26.915h-3.242l-.002 1.368zm-2.93 8.034c-1.814 0-3.098-1.342-3.098-3.303 0-2.07 1.367-3.39 3.11-3.39 1.755 0 3.049 1.453 3.049 3.39.002 1.984-1.377 3.303-3.061 3.303zm13.916-.024c-.764 0-1.064-.508-1.064-1.549V29.6h3.292v-2.686h-3.292v-4.308l-3.243.351v3.957h-1.428V29.6h1.428v5.592c0 2.723 1.38 4.029 3.461 4.029 1.635 0 2.433-.339 3.206-.763l-.834-2.59c-.545.279-1.151.425-1.526.425zm4.731-9.378h3.243v12.102h-3.243zm1.622-5.665c-1.113 0-2.009.896-2.009 1.973 0 1.101.896 1.985 2.009 1.985 1.102 0 2.008-.884 2.008-1.985 0-1.077-.907-1.973-2.008-1.973zm10.78 5.459c-3.848 0-6.437 2.649-6.437 6.269 0 3.605 2.589 6.244 6.437 6.244 3.765 0 6.439-2.541 6.439-6.244.001-3.715-2.674-6.269-6.439-6.269zm0 9.608c-1.851 0-3.158-1.465-3.158-3.34 0-1.912 1.271-3.353 3.158-3.353 1.791 0 3.147 1.367 3.147 3.353.001 1.961-1.392 3.34-3.147 3.34zm16.167-9.608c-1.489 0-2.893.605-3.885 1.767h-.036v-1.561h-3.244v12.102h3.244v-6.088c0-2.154 1.102-3.304 2.747-3.304 1.501 0 2.323.714 2.323 3.026v6.377h3.243V31.84c.002-3.728-1.803-5.131-4.392-5.131zm-.001 0h.001M3.155 47.572c-1.877 0-3.141 1.293-3.141 3.059 0 1.761 1.264 3.047 3.141 3.047 1.838 0 3.143-1.239 3.143-3.047-.002-1.814-1.306-3.059-3.143-3.059zm0 4.688c-.902 0-1.541-.714-1.541-1.63 0-.933.62-1.636 1.541-1.636.874 0 1.536.667 1.536 1.636-.001.957-.679 1.63-1.536 1.63zm4.582-5.604v1.017h-.626v1.311h.626v4.595H9.32v-4.595h1.316v-1.311H9.32v-.898c0-.578.225-.797.598-.797.224 0 .548.096.886.26l.318-1.239c-.267-.177-.815-.426-1.53-.426-1.17-.002-1.855.708-1.855 2.083zm10.628.916c-.727 0-1.41.295-1.896.86h-.019v-.762h-1.58v5.906h1.581v-2.971c0-1.053.537-1.612 1.342-1.612.73 0 1.134.348 1.134 1.476v3.112h1.582v-3.507c0-1.818-.879-2.502-2.144-2.502zm6.248 0c-1.677 0-2.93 1.252-2.93 3.047 0 1.843 1.312 3.059 3.043 3.059 1.188 0 2.048-.478 2.55-1.116l-1.026-.957c-.324.396-.791.674-1.411.668-.756-.006-1.317-.432-1.506-1.133h4.14c.03-.105.041-.38.041-.566-.002-1.733-1.165-3.002-2.901-3.002zm-1.276 2.427c.183-.686.686-1.034 1.329-1.034.685 0 1.114.408 1.273 1.034h-2.602zm10.66 1.264h-.019l-1.044-3.592h-1.277l-1.032 3.592h-.018l-1.146-3.592h-1.588l2.013 5.906h1.359l1.04-3.644h.016l1.051 3.644h1.365l2.013-5.906h-1.589m5.626 1.294h2.634v.018l-2.846 3.514v1.08h4.913v-1.299h-2.817v-.035l2.883-3.508v-1.064h-4.767m8.36-.099c-1.677 0-2.931 1.252-2.931 3.047 0 1.843 1.312 3.059 3.044 3.059 1.187 0 2.048-.478 2.55-1.116l-1.028-.957c-.323.396-.791.674-1.411.668-.756-.006-1.315-.432-1.506-1.133h4.141c.029-.105.041-.38.041-.566 0-1.733-1.162-3.002-2.9-3.002zm-1.276 2.427c.185-.686.688-1.034 1.329-1.034.687 0 1.116.408 1.276 1.034h-2.605zm9.633-1.66h-.024c-.438-.509-1.045-.77-1.742-.77-1.582 0-2.782 1.277-2.782 3.072 0 1.824 1.193 3.035 2.829 3.035.762 0 1.358-.289 1.766-.816h.029v.716h1.507v-5.904h-1.582l-.001.667zm-1.431 3.921c-.886 0-1.511-.655-1.511-1.612 0-1.01.666-1.653 1.518-1.653.856 0 1.487.709 1.487 1.653 0 .969-.672 1.612-1.494 1.612zm4.618-7.588h1.583v8.905h-1.583zm7.444 3.667h-.023c-.438-.509-1.045-.77-1.742-.77-1.583 0-2.782 1.277-2.782 3.072 0 1.824 1.193 3.035 2.829 3.035.762 0 1.358-.289 1.766-.816h.029v.716h1.506v-5.904h-1.581l-.002.667zm-1.43 3.921c-.886 0-1.511-.655-1.511-1.612 0-1.01.666-1.653 1.518-1.653.856 0 1.487.709 1.487 1.653 0 .969-.673 1.612-1.494 1.612zm8.044-4.688c-.727 0-1.411.295-1.896.86h-.018v-.762h-1.582v5.906h1.582v-2.971c0-1.053.537-1.612 1.34-1.612.732 0 1.135.348 1.135 1.476v3.112h1.583v-3.507c0-1.818-.88-2.502-2.144-2.502zm7.906.767h-.029c-.442-.509-1.062-.77-1.782-.77-1.582 0-2.781 1.277-2.781 3.072 0 1.824 1.192 3.035 2.828 3.035.786 0 1.394-.289 1.807-.816h.037v.716h1.504v-8.904l-1.582.001-.002 3.666zm-1.475 3.922c-.888 0-1.514-.656-1.514-1.613 0-1.01.667-1.652 1.52-1.652.902 0 1.553.708 1.553 1.652-.001.969-.691 1.613-1.559 1.613z" style="fill: rgb(238, 64, 85);"/>
  </g>
</svg>