<svg xmlns="http://www.w3.org/2000/svg"  viewBox="-5 -5 118.456 43.995">
  <g id="Group_434" data-name="Group 434" transform="translate(-153.645 -128.365)">
    <g id="Group_27" data-name="Group 27" transform="translate(153.645 136.591)">
      <path id="Path_151" data-name="Path 151" d="M236.7,192.187a9.334,9.334,0,1,1,9.425-9.352A9.017,9.017,0,0,1,236.7,192.187Zm0-14.507c-2.911,0-4.53,2.393-4.53,5.154,0,2.8,1.619,5.191,4.53,5.191s4.565-2.393,4.565-5.191C241.268,180.073,239.612,177.68,236.7,177.68Z" transform="translate(-203.197 -166.963)" fill="#ffffff"></path>
      <path id="Path_152" data-name="Path 152" d="M305.122,192.187c-2.321,0-6.041-.774-7.145-2.357a1.614,1.614,0,0,1-.33-.994,1.989,1.989,0,0,1,1.952-1.952,1.778,1.778,0,0,1,.957.259,10.326,10.326,0,0,0,4.786,1.436c2.027,0,2.984-.811,2.984-1.916,0-2.945-10.569-.551-10.569-7.548,0-2.982,2.615-5.6,7.291-5.6,2.321,0,5.487.737,6.48,2.173a1.608,1.608,0,0,1,.3.921,1.851,1.851,0,0,1-2.727,1.546,8.162,8.162,0,0,0-4.013-1.068c-1.692,0-2.8.774-2.8,1.767,0,2.651,10.53.442,10.53,7.622C312.816,189.72,310.054,192.187,305.122,192.187Z" transform="translate(-250.508 -166.963)" fill="#ffffff"></path>
      <path id="Path_153" data-name="Path 153" d="M374.538,178.5a2.309,2.309,0,0,1-2.319-2.32v-8.726c0-2.468-1.289-3.24-3.314-3.24a5.179,5.179,0,0,0-4.05,2.1v9.869a2.338,2.338,0,0,1-4.676,0v-20.4a2.319,2.319,0,0,1,2.391-2.283,2.3,2.3,0,0,1,2.285,2.283v7.033a8.228,8.228,0,0,1,6.259-2.762c3.9,0,5.781,2.136,5.781,5.6v10.531A2.319,2.319,0,0,1,374.538,178.5Z" transform="translate(-292.57 -153.496)" fill="#ffffff"></path>
      <path id="Path_154" data-name="Path 154" d="M433.351,192.419a2.309,2.309,0,0,1-2.319-2.32V176.477a2.32,2.32,0,0,1,2.392-2.284,2.3,2.3,0,0,1,2.285,2.284V190.1A2.319,2.319,0,0,1,433.351,192.419Z" transform="translate(-340.229 -167.416)" fill="#ffffff"></path>
      <path id="Path_155" data-name="Path 155" d="M467.426,192.419a2.311,2.311,0,0,1-2.321-2.32V176.477a2.322,2.322,0,0,1,2.394-2.284,2.294,2.294,0,0,1,2.283,2.284V190.1A2.317,2.317,0,0,1,467.426,192.419Z" transform="translate(-363.148 -167.416)" fill="#ffffff"></path>
      <path id="Path_156" data-name="Path 156" d="M172.46,169.978c0-.023,0-.046,0-.069s0-.046,0-.068V155.812a2.357,2.357,0,0,0-4.713,0v5.883a10.012,10.012,0,0,0-4.711-1.1,9.334,9.334,0,1,0,9.421,9.5h0Zm-9.423,5.122c-2.911,0-4.53-2.392-4.53-5.191,0-2.762,1.619-5.154,4.53-5.154s4.565,2.393,4.565,5.154C167.6,172.708,165.945,175.1,163.036,175.1Z" transform="translate(-153.645 -153.492)" fill="#ffffff"></path>
    </g>
    <path id="Path_157" data-name="Path 157" d="M433.231,137.86a1.388,1.388,0,0,1-.984-.408l-3.331-3.331a1.393,1.393,0,0,1,0-1.969l3.38-3.38a1.392,1.392,0,0,1,1.969,1.968l-2.4,2.4,2.347,2.347a1.392,1.392,0,0,1-.984,2.376Z" transform="translate(-184.886 0)" fill="#0097fb"></path>
    <path id="Path_158" data-name="Path 158" d="M464.516,137.86a1.392,1.392,0,0,1-.984-2.376l2.347-2.347-2.4-2.4a1.392,1.392,0,1,1,1.968-1.968l3.38,3.38a1.392,1.392,0,0,1,0,1.969l-3.331,3.331A1.388,1.388,0,0,1,464.516,137.86Z" transform="translate(-208.138 0)" fill="#0097fb"></path>
    <path id="Path_3537" data-name="Path 3537" d="M433.231,137.86a1.388,1.388,0,0,1-.984-.408l-3.331-3.331a1.393,1.393,0,0,1,0-1.969l3.38-3.38a1.392,1.392,0,0,1,1.969,1.968l-2.4,2.4,2.347,2.347a1.392,1.392,0,0,1-.984,2.376Z" transform="translate(-184.886 0)" fill="#0097fb"></path>
    <path id="Path_3538" data-name="Path 3538" d="M464.516,137.86a1.392,1.392,0,0,1-.984-2.376l2.347-2.347-2.4-2.4a1.392,1.392,0,1,1,1.968-1.968l3.38,3.38a1.392,1.392,0,0,1,0,1.969l-3.331,3.331A1.388,1.388,0,0,1,464.516,137.86Z" transform="translate(-208.138 0)" fill="#0097fb"></path>
  </g>
</svg>