<?xml version="1.0" encoding="UTF-8"?>
<!-- Created with Inkscape (http://www.inkscape.org/) -->
<svg width="50mm" height="50mm" version="1.1" viewBox="0 0 50 50" xmlns="http://www.w3.org/2000/svg" xmlns:cc="http://creativecommons.org/ns#" xmlns:dc="http://purl.org/dc/elements/1.1/" xmlns:rdf="http://www.w3.org/1999/02/22-rdf-syntax-ns#">
 <metadata>
  <rdf:RDF>
   <cc:Work rdf:about="">
    <dc:format>image/svg+xml</dc:format>
    <dc:type rdf:resource="http://purl.org/dc/dcmitype/StillImage"/>
    <dc:title/>
   </cc:Work>
  </rdf:RDF>
 </metadata>
 <g transform="translate(198.11 50.792)">
  <g transform="matrix(.69444 0 0 .69444 -424.14 -188.71)">
   <circle cx="361.49" cy="234.6" r="36" fill="#fff" stroke-width="0"/>
   <circle cx="361.49" cy="234.6" r="24" fill="#808080" stroke-width="0"/>
   <g transform="matrix(1 0 -1.4455e-8 .98864 240.34 127.38)">
    <g transform="matrix(2.8065 0 0 -2.8065 144.75 106.68)">
     <path d="m0 0c-0.47 0-0.852-0.382-0.852-0.852v-0.365c0-0.135-0.109-0.244-0.244-0.244-0.134 0-0.243 0.109-0.243 0.244v2.07c0 0.469-0.383 0.852-0.852 0.852-0.471 0-0.853-0.383-0.853-0.852v-2.07c0-0.135-0.109-0.244-0.243-0.244-0.135 0-0.244 0.109-0.244 0.244v2.8c0 0.47-0.382 0.853-0.852 0.853s-0.852-0.383-0.852-0.853v-2.8c0-0.135-0.109-0.244-0.244-0.244-0.134 0-0.244 0.109-0.244 0.244v4.992c0 0.47-0.38185 0.49156-0.85185 0.49156s-0.85215-0.021564-0.85215-0.49156v-8.158c0-0.091-0.05-0.174-0.13-0.216s-0.177-0.036-0.252 0.016l-2.195 1.509c-0.434 0.298-0.851 0.125-1.078-0.114-0.227-0.238-0.377-0.664-0.058-1.082l2.954-3.856c1.008-1.316 2.599-2.102 4.256-2.102h0.156c2.288 0 4.627 0.55 4.627 4.627v4.749c0 0.47-0.383 0.852-0.853 0.852"/>
    </g>
    <path d="m131.33 81.348c-0.3973 0.0024-0.72136 0.20525-0.718 0.4567l0.67247 11.146c6e-3 0.42634-0.54052 0.77633-1.2247 0.78101-0.68182 0.0023-1.2427-0.34121-1.2464-0.76735l-0.38133-11.149c-4e-3 -0.25145-0.33317-0.45208-0.731-0.4501-0.40193 0.0023-0.72051 0.20921-0.718 0.46066l0.38063 11.149c6e-3 0.42634-0.53854 0.77527-1.2205 0.77758l-0.0673 0.0035c-0.68426 0.0023-1.2389-0.34121-1.2464-0.76735l5e-3 -11.156c-4e-3 -0.24947-0.32474-0.44878-0.727-0.4468-0.3973 0.0023-0.7223 0.20525-0.719 0.4567l-8e-3 11.152c4e-3 0.42832-0.54382 0.77639-1.2249 0.78101-0.68169 0.0047-1.239-0.34121-1.2464-0.76742l0.29244-11.156c-4e-3 -0.25145-0.32993-0.45208-0.731-0.4501-0.39862 0.0023-0.71995 0.20921-0.715 0.46066l-0.27429 12.305c0.0462 2.7287 2.0563 5.0153 4.7476 5.6648l-0.0198 0.0033c6e-3 0.01317 0.0396 0.02635 0.0462 0.03963l-6e-3 0.3445h3.9036l-0.0264-0.35836c0.0198-0.01976 0.0462-0.03305 0.0528-0.05281 2.6652-0.68453 4.6113-2.9896 4.5701-5.716l-0.68585-12.295c-4e-3 -0.24947-0.32987-0.45208-0.731-0.4501z"/>
   </g>
   <g transform="matrix(1.7968 -.032797 -.033645 -1.7516 346.88 238.29)">
    <path d="m1.1614 0.51666s-0.59442-0.37455-0.64148-2.6753l-0.169-8.2826s0.74086-0.21709 0.73309-0.63699c0 0 3.1184-0.79019 3.1497-1.439l-9.2011 0.18732c0.057552 0.64756 3.2043 1.3102 3.2043 1.3102 0.00777 0.4199 0.75983 0.60592 0.75983 0.60592l0.16843 8.282c0.047068 2.3008-0.532 2.6998-0.532 2.6998-1.1145 0.56935-2.3736 1.5888-2.3736 1.5888-5.0283 5.0772 0.30863 15.119 0.30863 15.119l7.3379-0.1494s4.9226-10.251-0.30863-15.119c0 0-1.2997-0.96811-2.4361-1.4906"/>
   </g>
  </g>
 </g>
</svg>
